<?xml version="1.0" encoding="utf-8"?>
<!-- Generator: Adobe Illustrator 28.1.0, SVG Export Plug-In . SVG Version: 6.00 Build 0)  -->
<svg version="1.1" id="Layer_1" xmlns="http://www.w3.org/2000/svg" xmlns:xlink="http://www.w3.org/1999/xlink" x="0px" y="0px"
	 viewBox="0 0 190 40" style="enable-background:new 0 0 190 40;" xml:space="preserve">
<style type="text/css">
	.st0{fill:#FF6633;}
</style>
<g>
	<path class="st0" d="M8.5,19.1c-0.1-0.3-0.1-0.6-0.2-0.9c-0.1-1.5,1.1-2.4,2.6-1.9c0.3,0.1,0.6,0.3,0.8,0.5
		c1.8,1.3,3.4,2.8,5.1,4.2c2.1,1.8,4.3,3.4,6.7,4.9c0.4,0.2,0.7,0.4,1.1,0.6c-0.7,0.2-1.4,0.4-2.1,0.5c-2.5,0.4-4.9,0.5-7.4-0.1
		c-0.2,0-0.4-0.1-0.5-0.3c-1.8-2.1-3.6-4.1-5.3-6.2C9.2,20.2,9.1,20,9,20c0,0,0-0.1-0.1-0.1c0-0.1-0.1-0.3-0.2-0.3
		C8.6,19.4,8.6,19.2,8.5,19.1z"/>
	<path class="st0" d="M8.7,19.5c0.1,0.1,0.2,0.2,0.2,0.3C8.9,19.8,8.8,19.6,8.7,19.5z"/>
	<path class="st0" d="M16.7,28.9c0.9,0.1,1.8,0.1,2.6,0.1c2.6-0.1,5.2-0.6,7.7-1.5c2.7-0.9,5.1-2.3,7.4-3.9c2.3-1.5,4.5-3.3,6.7-5
		c0.6-0.5,1.3-1,2-1.3c0.7-0.3,1.5-0.4,2.2,0c0.7,0.5,0.9,1.4,0.6,2.3c-0.2,0.6-0.5,1.1-0.9,1.5c-3,3.2-6,6.5-9.3,9.5
		c-1.5,1.4-3,2.8-4.9,3.8c-1.6,0.9-3.2,1.4-5,1.1c-1.2-0.2-2.3-0.7-3.3-1.3c-1.9-1.2-3.4-2.8-5-4.4C17.4,29.6,17.1,29.3,16.7,28.9z"
		/>
	<path class="st0" d="M59.1,20.6c0,0.3,0.1,0.5,0.1,0.8c0.1,1.4-1,2.2-2.4,1.7c-0.3-0.1-0.5-0.3-0.8-0.4c-1.6-1.2-3.1-2.6-4.7-3.8
		c-1.9-1.6-3.9-3.2-6.1-4.5c-0.3-0.2-0.7-0.4-1-0.6c0.6-0.2,1.3-0.3,1.9-0.5c2.3-0.4,4.5-0.4,6.8,0.1c0.2,0,0.3,0.1,0.5,0.3
		c1.7,1.9,3.3,3.8,4.9,5.7c0.1,0.1,0.1,0.2,0.3,0.3c0,0,0,0.1,0.1,0.1c0,0.1,0.1,0.2,0.2,0.3C59,20.3,59,20.5,59.1,20.6z"/>
	<path class="st0" d="M58.9,20.2c-0.1-0.1-0.2-0.2-0.2-0.3C58.8,20,58.8,20.1,58.9,20.2z"/>
	<path class="st0" d="M51.5,11.6c-0.8-0.1-1.6-0.1-2.4-0.1c-2.4,0.1-4.8,0.6-7,1.4c-2.4,0.9-4.6,2.1-6.8,3.6c-2.1,1.4-4.1,3-6.2,4.5
		c-0.6,0.4-1.2,0.9-1.9,1.2c-0.7,0.3-1.3,0.4-2,0c-0.6-0.4-0.8-1.3-0.5-2.1c0.2-0.5,0.5-1,0.8-1.4c2.8-3,5.5-6,8.5-8.7
		c1.4-1.3,2.8-2.5,4.4-3.5c1.4-0.8,2.9-1.3,4.6-1c1.1,0.2,2.1,0.6,3,1.2c1.7,1.1,3.1,2.6,4.6,4C51,11,51.2,11.3,51.5,11.6z"/>
</g>
<g>
	<path d="M63,27.6V13.1h3.1v14.5H63z M65.7,21v-1.9h2.8c0.6,0,1.1-0.2,1.3-0.5c0.3-0.3,0.4-0.7,0.4-1.3c0-0.5-0.1-1-0.4-1.3
		c-0.3-0.3-0.7-0.5-1.3-0.5h-2.8v-2.5h2.6c1.6,0,2.9,0.3,3.8,1c0.9,0.7,1.3,1.7,1.3,3v0.3c0,0.9-0.2,1.6-0.7,2.1
		c-0.5,0.5-1.1,0.9-1.8,1.1c-0.8,0.2-1.6,0.3-2.6,0.3H65.7z M65.7,27.6v-2.5h3.3c0.6,0,1.1-0.2,1.4-0.5s0.5-0.8,0.5-1.3
		s-0.2-1-0.5-1.3s-0.8-0.5-1.4-0.5h-3.3v-1.9h3.2c1,0,1.9,0.1,2.6,0.4c0.8,0.2,1.4,0.6,1.8,1.2c0.4,0.5,0.7,1.3,0.7,2.2v0.3
		c0,0.8-0.2,1.6-0.6,2.2s-1,1.1-1.7,1.4c-0.8,0.3-1.7,0.5-2.8,0.5H65.7z"/>
	<path d="M81.6,27.9c-0.9,0-1.8-0.1-2.5-0.4s-1.3-0.7-1.9-1.2c-0.5-0.5-0.9-1.1-1.1-1.8c-0.3-0.7-0.4-1.4-0.4-2.1v-0.5
		c0-0.7,0.1-1.5,0.4-2.1c0.3-0.7,0.7-1.3,1.2-1.8c0.5-0.5,1.1-0.9,1.9-1.2c0.7-0.3,1.5-0.4,2.4-0.4c0.9,0,1.8,0.1,2.5,0.4
		c0.7,0.3,1.3,0.7,1.9,1.2s0.9,1.1,1.2,1.8c0.3,0.7,0.4,1.4,0.4,2.1v0.5c0,0.7-0.1,1.4-0.4,2.1c-0.3,0.7-0.6,1.2-1.1,1.8
		c-0.5,0.5-1.1,0.9-1.9,1.2C83.4,27.7,82.6,27.9,81.6,27.9z M81.6,25.2c0.6,0,1.1-0.1,1.5-0.4c0.4-0.3,0.7-0.6,0.9-1.1
		c0.2-0.5,0.3-1,0.3-1.6c0-0.6-0.1-1.2-0.3-1.6c-0.2-0.5-0.5-0.8-0.9-1.1c-0.4-0.3-0.9-0.4-1.5-0.4c-0.6,0-1.1,0.1-1.5,0.4
		c-0.4,0.3-0.7,0.6-0.9,1.1c-0.2,0.5-0.3,1-0.3,1.6c0,0.6,0.1,1.1,0.3,1.6c0.2,0.5,0.5,0.8,0.9,1.1C80.5,25.1,81,25.2,81.6,25.2z"/>
	<path d="M94.9,27.9c-0.9,0-1.8-0.1-2.5-0.4s-1.3-0.7-1.9-1.2c-0.5-0.5-0.9-1.1-1.1-1.8c-0.3-0.7-0.4-1.4-0.4-2.1v-0.5
		c0-0.7,0.1-1.5,0.4-2.1c0.3-0.7,0.7-1.3,1.2-1.8c0.5-0.5,1.1-0.9,1.9-1.2c0.7-0.3,1.5-0.4,2.4-0.4c0.9,0,1.8,0.1,2.5,0.4
		c0.7,0.3,1.3,0.7,1.9,1.2c0.5,0.5,0.9,1.1,1.2,1.8c0.3,0.7,0.4,1.4,0.4,2.1v0.5c0,0.7-0.1,1.4-0.4,2.1c-0.3,0.7-0.6,1.2-1.1,1.8
		c-0.5,0.5-1.1,0.9-1.9,1.2S95.9,27.9,94.9,27.9z M94.9,25.2c0.6,0,1.1-0.1,1.5-0.4c0.4-0.3,0.7-0.6,0.9-1.1c0.2-0.5,0.3-1,0.3-1.6
		c0-0.6-0.1-1.2-0.3-1.6c-0.2-0.5-0.5-0.8-1-1.1C96,19.2,95.5,19,94.9,19c-0.6,0-1.1,0.1-1.5,0.4c-0.4,0.3-0.7,0.6-0.9,1.1
		c-0.2,0.5-0.3,1-0.3,1.6c0,0.6,0.1,1.1,0.3,1.6c0.2,0.5,0.5,0.8,0.9,1.1C93.8,25.1,94.3,25.2,94.9,25.2z"/>
	<path d="M103,27.5V16.8h2.5v4.6h-0.2c0-1.1,0.1-2,0.4-2.7c0.3-0.7,0.7-1.3,1.2-1.7c0.5-0.4,1.2-0.6,2-0.6h0.1c0.8,0,1.5,0.2,2,0.6
		c0.5,0.4,1,0.9,1.2,1.7c0.3,0.7,0.4,1.6,0.4,2.7h-0.8c0-1.1,0.1-2,0.4-2.7c0.3-0.7,0.7-1.3,1.2-1.7c0.5-0.4,1.2-0.6,2-0.6h0.1
		c0.8,0,1.5,0.2,2,0.6c0.6,0.4,1,0.9,1.3,1.7c0.3,0.7,0.4,1.6,0.4,2.7v6.1h-3.1v-6.3c0-0.6-0.2-1.1-0.5-1.4
		c-0.3-0.4-0.7-0.5-1.3-0.5c-0.6,0-1,0.2-1.3,0.6c-0.3,0.4-0.5,0.9-0.5,1.5v6.2h-3.2v-6.3c0-0.6-0.2-1.1-0.5-1.4
		c-0.3-0.4-0.7-0.5-1.3-0.5c-0.6,0-1,0.2-1.4,0.6s-0.5,0.9-0.5,1.5v6.2H103z"/>
	<path d="M127.5,27.9c-0.9,0-1.8-0.1-2.5-0.4s-1.3-0.7-1.9-1.2c-0.5-0.5-0.9-1.1-1.1-1.8c-0.3-0.7-0.4-1.4-0.4-2.1v-0.5
		c0-0.7,0.1-1.5,0.4-2.1c0.3-0.7,0.7-1.3,1.2-1.8c0.5-0.5,1.1-0.9,1.9-1.2c0.7-0.3,1.5-0.4,2.4-0.4c0.9,0,1.8,0.1,2.5,0.4
		c0.7,0.3,1.3,0.7,1.8,1.2c0.5,0.5,0.9,1.1,1.2,1.8c0.3,0.7,0.4,1.4,0.4,2.1v0.5c0,0.7-0.1,1.4-0.4,2.1c-0.3,0.7-0.6,1.2-1.1,1.8
		c-0.5,0.5-1.1,0.9-1.8,1.2C129.3,27.7,128.5,27.9,127.5,27.9z M127.5,25.2c0.6,0,1.1-0.1,1.5-0.4c0.4-0.3,0.7-0.6,0.9-1.1
		c0.2-0.5,0.3-1,0.3-1.6c0-0.6-0.1-1.2-0.3-1.6c-0.2-0.5-0.5-0.8-1-1.1c-0.4-0.3-0.9-0.4-1.5-0.4c-0.6,0-1.1,0.1-1.5,0.4
		c-0.4,0.3-0.7,0.6-1,1.1c-0.2,0.5-0.3,1-0.3,1.6c0,0.6,0.1,1.1,0.3,1.6c0.2,0.5,0.5,0.8,0.9,1.1C126.4,25.1,126.9,25.2,127.5,25.2z
		"/>
	<path d="M134.6,16v-2.8h11.3V16H134.6z M138.7,27.5V15.6h3.2v11.9H138.7z"/>
	<path d="M152.7,27.9c-0.9,0-1.7-0.2-2.4-0.5c-0.7-0.3-1.3-0.7-1.7-1.3c-0.5-0.5-0.8-1.1-1.1-1.8c-0.2-0.7-0.4-1.3-0.4-2v-0.4
		c0-0.7,0.1-1.4,0.4-2.1c0.2-0.7,0.6-1.2,1-1.8c0.5-0.5,1-0.9,1.7-1.2s1.5-0.5,2.3-0.5c1.1,0,2.1,0.3,2.9,0.8c0.8,0.5,1.4,1.2,1.8,2
		c0.4,0.8,0.6,1.7,0.6,2.7v1.1h-9.5v-1.8h7.6l-1,0.8c0-0.6-0.1-1.2-0.3-1.6c-0.2-0.5-0.5-0.8-0.8-1s-0.8-0.4-1.3-0.4
		c-0.5,0-1,0.1-1.4,0.4s-0.7,0.6-0.9,1.1c-0.2,0.5-0.3,1.1-0.3,1.8c0,0.6,0.1,1.2,0.3,1.7c0.2,0.5,0.5,0.8,0.9,1.1
		c0.4,0.3,0.9,0.4,1.5,0.4c0.6,0,1-0.1,1.4-0.3c0.4-0.2,0.6-0.5,0.7-0.8h2.9c-0.2,0.7-0.5,1.4-0.9,1.9c-0.5,0.6-1,1-1.7,1.3
		C154.4,27.7,153.6,27.9,152.7,27.9z"/>
	<path d="M164.8,27.9c-0.9,0-1.7-0.2-2.4-0.5s-1.3-0.7-1.7-1.2c-0.5-0.5-0.8-1.1-1-1.8c-0.2-0.7-0.3-1.3-0.3-2V22
		c0-0.7,0.1-1.4,0.4-2.1c0.2-0.7,0.6-1.3,1-1.8s1-0.9,1.7-1.2s1.5-0.5,2.4-0.5c1,0,1.8,0.2,2.6,0.6s1.3,0.9,1.8,1.6
		c0.4,0.7,0.7,1.4,0.7,2.3h-3.1c-0.1-0.5-0.2-0.9-0.6-1.2s-0.8-0.5-1.4-0.5c-0.5,0-1,0.1-1.3,0.4c-0.3,0.3-0.6,0.6-0.8,1.1
		c-0.2,0.5-0.3,1-0.3,1.6c0,0.6,0.1,1.1,0.2,1.6c0.2,0.5,0.4,0.8,0.8,1.1c0.3,0.3,0.8,0.4,1.4,0.4c0.4,0,0.8-0.1,1.1-0.2
		c0.3-0.2,0.5-0.4,0.7-0.6c0.2-0.3,0.3-0.6,0.3-0.9h3.1c0,0.9-0.3,1.7-0.7,2.3c-0.5,0.7-1.1,1.2-1.8,1.6
		C166.6,27.7,165.8,27.9,164.8,27.9z"/>
	<path d="M171.9,27.5V13.2h3.1v8.2h-0.5c0-1.1,0.1-2,0.4-2.7c0.3-0.7,0.7-1.3,1.2-1.7c0.5-0.4,1.2-0.6,2-0.6h0.1
		c1.2,0,2.1,0.4,2.7,1.3c0.6,0.8,0.9,2.1,0.9,3.7v6.1h-3.1v-6.3c0-0.6-0.2-1.1-0.5-1.4s-0.8-0.5-1.4-0.5c-0.6,0-1.1,0.2-1.4,0.6
		c-0.4,0.4-0.5,0.9-0.5,1.5v6.2H171.9z"/>
</g>
</svg>
