<?xml version="1.0" encoding="utf-8"?>
<!-- Generator: Adobe Illustrator 28.1.0, SVG Export Plug-In . SVG Version: 6.00 Build 0)  -->
<svg version="1.1" id="Layer_1" xmlns="http://www.w3.org/2000/svg" xmlns:xlink="http://www.w3.org/1999/xlink" x="0px" y="0px"
	 viewBox="0 0 201.8 40" style="enable-background:new 0 0 201.8 40;" xml:space="preserve">
<style type="text/css">
	.st0{fill:#FF6633;}
	.st1{fill:#FFFFFF;}
</style>
<g>
	<path class="st0" d="M6.1,18.6C6.1,18.2,6,17.9,6,17.6c-0.1-1.6,1.2-2.6,2.8-2c0.3,0.1,0.6,0.3,0.9,0.5c1.9,1.4,3.7,3,5.5,4.5
		c2.3,1.9,4.6,3.7,7.2,5.2c0.4,0.2,0.8,0.4,1.2,0.7c-0.8,0.2-1.5,0.4-2.3,0.5c-2.7,0.5-5.3,0.5-8-0.1c-0.2-0.1-0.4-0.1-0.5-0.3
		c-1.9-2.2-3.9-4.5-5.7-6.7c-0.1-0.1-0.1-0.3-0.3-0.4c0,0,0-0.1-0.1-0.1c0-0.1-0.1-0.3-0.2-0.4C6.3,18.9,6.2,18.7,6.1,18.6z"/>
	<path class="st0" d="M6.4,19c0.2,0.1,0.2,0.2,0.2,0.4C6.5,19.3,6.5,19.2,6.4,19z"/>
	<path class="st0" d="M15,29.2c1,0.1,1.9,0.1,2.9,0.1c2.9-0.1,5.6-0.7,8.3-1.6c2.9-1,5.5-2.5,8-4.2c2.5-1.7,4.8-3.6,7.2-5.3
		c0.7-0.5,1.4-1.1,2.2-1.4c0.8-0.4,1.6-0.5,2.3,0c0.7,0.5,1,1.5,0.6,2.5c-0.2,0.6-0.5,1.1-1,1.6c-3.2,3.5-6.5,7-10,10.2
		c-1.6,1.5-3.3,3-5.2,4.1c-1.7,1-3.5,1.5-5.4,1.2c-1.3-0.2-2.4-0.8-3.5-1.5c-2-1.3-3.7-3-5.4-4.7C15.7,29.9,15.4,29.5,15,29.2z"/>
	<path class="st0" d="M60.8,20.2c0.1,0.3,0.1,0.6,0.2,0.9c0.1,1.5-1.1,2.4-2.5,1.9c-0.3-0.1-0.6-0.3-0.8-0.5c-1.8-1.3-3.4-2.8-5-4.1
		c-2.1-1.7-4.3-3.4-6.6-4.8c-0.4-0.2-0.7-0.4-1.1-0.6c0.7-0.2,1.4-0.4,2.1-0.5c2.4-0.4,4.9-0.5,7.3,0.1c0.2,0,0.4,0.1,0.5,0.3
		c1.8,2,3.5,4.1,5.3,6.2c0.1,0.1,0.1,0.3,0.3,0.3c0,0,0,0.1,0.1,0.1c0,0.1,0.1,0.2,0.2,0.3C60.6,19.9,60.7,20.1,60.8,20.2z"/>
	<path class="st0" d="M60.5,19.8c-0.1-0.1-0.2-0.2-0.2-0.3C60.4,19.5,60.4,19.6,60.5,19.8z"/>
	<path class="st0" d="M52.6,10.5c-0.9-0.1-1.8-0.1-2.6-0.1c-2.6,0.1-5.1,0.6-7.6,1.5c-2.6,0.9-5,2.3-7.3,3.9
		c-2.3,1.5-4.4,3.3-6.6,4.9c-0.6,0.5-1.3,1-2,1.3c-0.7,0.3-1.4,0.4-2.1,0c-0.7-0.5-0.9-1.4-0.6-2.3c0.2-0.6,0.5-1,0.9-1.5
		c3-3.2,5.9-6.4,9.2-9.4c1.5-1.4,3-2.7,4.8-3.8c1.5-0.9,3.2-1.4,5-1.1c1.2,0.2,2.2,0.7,3.2,1.3c1.9,1.2,3.4,2.8,4.9,4.3
		C52,9.8,52.2,10.1,52.6,10.5z"/>
</g>
<g>
	<path class="st1" d="M66.8,23.9V8h3.4v15.9H66.8z M69.8,16.7v-2.1h3.1c0.7,0,1.2-0.2,1.5-0.5c0.3-0.3,0.5-0.8,0.5-1.4
		c0-0.6-0.2-1.1-0.5-1.4c-0.3-0.3-0.8-0.5-1.5-0.5h-3.1V8h2.9c1.8,0,3.2,0.4,4.2,1.1c1,0.8,1.4,1.8,1.4,3.2v0.3c0,1-0.2,1.8-0.7,2.3
		c-0.5,0.6-1.2,1-2,1.3c-0.8,0.3-1.8,0.4-2.9,0.4H69.8z M69.8,23.9v-2.7h3.7c0.7,0,1.2-0.2,1.5-0.5c0.3-0.3,0.5-0.8,0.5-1.5
		s-0.2-1.1-0.5-1.4c-0.3-0.3-0.8-0.5-1.5-0.5h-3.7v-2.1h3.5c1.1,0,2.1,0.1,2.9,0.4c0.8,0.3,1.5,0.7,2,1.3s0.7,1.4,0.7,2.4v0.3
		c0,0.9-0.2,1.7-0.6,2.4c-0.4,0.7-1.1,1.2-1.9,1.5c-0.8,0.4-1.9,0.5-3.1,0.5H69.8z"/>
	<path class="st1" d="M87.2,24.2c-1,0-1.9-0.2-2.7-0.5c-0.8-0.3-1.5-0.8-2-1.3c-0.6-0.6-1-1.2-1.3-1.9c-0.3-0.7-0.4-1.5-0.4-2.3
		v-0.5c0-0.8,0.1-1.6,0.4-2.3c0.3-0.7,0.7-1.4,1.3-1.9c0.6-0.6,1.2-1,2-1.3s1.7-0.5,2.7-0.5c1,0,1.9,0.2,2.7,0.5s1.5,0.8,2,1.3
		c0.6,0.6,1,1.2,1.3,1.9c0.3,0.7,0.5,1.5,0.5,2.3v0.5c0,0.8-0.1,1.6-0.4,2.3c-0.3,0.7-0.7,1.4-1.3,1.9c-0.6,0.6-1.2,1-2,1.3
		C89.2,24.1,88.2,24.2,87.2,24.2z M87.2,21.3c0.7,0,1.2-0.1,1.7-0.4c0.4-0.3,0.8-0.7,1-1.2c0.2-0.5,0.4-1.1,0.4-1.7
		c0-0.7-0.1-1.3-0.4-1.8c-0.2-0.5-0.6-0.9-1-1.2c-0.5-0.3-1-0.5-1.6-0.5c-0.6,0-1.2,0.2-1.6,0.5c-0.5,0.3-0.8,0.7-1,1.2
		c-0.2,0.5-0.4,1.1-0.4,1.8c0,0.6,0.1,1.2,0.3,1.7c0.2,0.5,0.6,0.9,1,1.2C86,21.2,86.6,21.3,87.2,21.3z"/>
	<path class="st1" d="M101.8,24.2c-1,0-1.9-0.2-2.7-0.5c-0.8-0.3-1.5-0.8-2-1.3c-0.6-0.6-1-1.2-1.3-1.9c-0.3-0.7-0.4-1.5-0.4-2.3
		v-0.5c0-0.8,0.1-1.6,0.4-2.3c0.3-0.7,0.7-1.4,1.3-1.9s1.2-1,2-1.3s1.7-0.5,2.7-0.5c1,0,1.9,0.2,2.7,0.5c0.8,0.3,1.5,0.8,2,1.3
		c0.6,0.6,1,1.2,1.3,1.9c0.3,0.7,0.5,1.5,0.5,2.3v0.5c0,0.8-0.1,1.6-0.4,2.3c-0.3,0.7-0.7,1.4-1.3,1.9c-0.6,0.6-1.2,1-2,1.3
		S102.9,24.2,101.8,24.2z M101.8,21.3c0.7,0,1.2-0.1,1.7-0.4c0.4-0.3,0.8-0.7,1-1.2c0.2-0.5,0.4-1.1,0.4-1.7c0-0.7-0.1-1.3-0.4-1.8
		c-0.2-0.5-0.6-0.9-1-1.2s-1-0.5-1.6-0.5c-0.6,0-1.2,0.2-1.6,0.5c-0.5,0.3-0.8,0.7-1,1.2s-0.4,1.1-0.4,1.8c0,0.6,0.1,1.2,0.3,1.7
		c0.2,0.5,0.6,0.9,1,1.2C100.6,21.2,101.2,21.3,101.8,21.3z"/>
	<path class="st1" d="M110.7,23.8V12.1h2.7v5.1h-0.2c0-1.2,0.2-2.2,0.5-3c0.3-0.8,0.8-1.4,1.4-1.8c0.6-0.4,1.3-0.6,2.2-0.6h0.2
		c0.9,0,1.6,0.2,2.2,0.6s1,1,1.4,1.8c0.3,0.8,0.5,1.8,0.5,3h-0.8c0-1.2,0.2-2.2,0.5-3c0.3-0.8,0.8-1.4,1.4-1.8
		c0.6-0.4,1.3-0.6,2.2-0.6h0.1c0.9,0,1.6,0.2,2.2,0.6c0.6,0.4,1.1,1,1.4,1.8c0.3,0.8,0.5,1.8,0.5,3v6.7h-3.4v-6.9
		c0-0.6-0.2-1.2-0.5-1.6c-0.3-0.4-0.8-0.6-1.4-0.6s-1.1,0.2-1.5,0.6c-0.4,0.4-0.5,0.9-0.5,1.6v6.8h-3.5v-6.9c0-0.6-0.2-1.2-0.5-1.6
		c-0.3-0.4-0.8-0.6-1.4-0.6c-0.6,0-1.1,0.2-1.5,0.6s-0.5,0.9-0.5,1.6v6.8H110.7z"/>
	<path class="st1" d="M137.5,24.2c-1,0-1.9-0.2-2.7-0.5c-0.8-0.3-1.5-0.8-2-1.3c-0.6-0.6-1-1.2-1.3-1.9c-0.3-0.7-0.4-1.5-0.4-2.3
		v-0.5c0-0.8,0.1-1.6,0.4-2.3c0.3-0.7,0.7-1.4,1.3-1.9c0.6-0.6,1.2-1,2-1.3s1.7-0.5,2.7-0.5c1,0,1.9,0.2,2.7,0.5s1.5,0.8,2,1.3
		s1,1.2,1.3,1.9c0.3,0.7,0.5,1.5,0.5,2.3v0.5c0,0.8-0.1,1.6-0.4,2.3c-0.3,0.7-0.7,1.4-1.3,1.9c-0.6,0.6-1.2,1-2,1.3
		C139.5,24.1,138.6,24.2,137.5,24.2z M137.5,21.3c0.7,0,1.2-0.1,1.7-0.4c0.4-0.3,0.8-0.7,1-1.2c0.2-0.5,0.4-1.1,0.4-1.7
		c0-0.7-0.1-1.3-0.4-1.8c-0.2-0.5-0.6-0.9-1-1.2c-0.5-0.3-1-0.5-1.6-0.5c-0.6,0-1.2,0.2-1.6,0.5s-0.8,0.7-1,1.2
		c-0.2,0.5-0.4,1.1-0.4,1.8c0,0.6,0.1,1.2,0.3,1.7c0.2,0.5,0.6,0.9,1,1.2C136.3,21.2,136.9,21.3,137.5,21.3z"/>
	<path class="st1" d="M145.3,11.2V8.2h12.3v3.1H145.3z M149.7,23.8v-13h3.5v13H149.7z"/>
	<path class="st1" d="M165.1,24.2c-1,0-1.9-0.2-2.6-0.5c-0.8-0.3-1.4-0.8-1.9-1.4c-0.5-0.6-0.9-1.2-1.2-2s-0.4-1.5-0.4-2.2v-0.4
		c0-0.8,0.1-1.5,0.4-2.3c0.3-0.7,0.6-1.4,1.1-1.9s1.1-1,1.9-1.4c0.8-0.3,1.6-0.5,2.6-0.5c1.3,0,2.3,0.3,3.2,0.8
		c0.9,0.6,1.5,1.3,2,2.2c0.5,0.9,0.7,1.9,0.7,3v1.2h-10.4v-2h8.3l-1.1,0.9c0-0.7-0.1-1.3-0.3-1.8c-0.2-0.5-0.5-0.9-0.9-1.1
		c-0.4-0.3-0.9-0.4-1.5-0.4c-0.6,0-1.1,0.1-1.5,0.4c-0.4,0.3-0.7,0.7-0.9,1.2c-0.2,0.5-0.3,1.2-0.3,1.9c0,0.7,0.1,1.3,0.3,1.8
		c0.2,0.5,0.5,0.9,0.9,1.2c0.4,0.3,1,0.4,1.7,0.4c0.6,0,1.1-0.1,1.5-0.4c0.4-0.2,0.7-0.5,0.8-0.9h3.2c-0.2,0.8-0.5,1.5-1,2.1
		c-0.5,0.6-1.1,1.1-1.9,1.4C166.9,24.1,166,24.2,165.1,24.2z"/>
	<path class="st1" d="M178.3,24.2c-1,0-1.9-0.2-2.6-0.5s-1.4-0.8-1.9-1.4s-0.9-1.2-1.1-1.9c-0.2-0.7-0.4-1.5-0.4-2.2v-0.4
		c0-0.8,0.1-1.6,0.4-2.3c0.3-0.7,0.6-1.4,1.1-2s1.1-1,1.9-1.4c0.8-0.3,1.6-0.5,2.6-0.5c1.1,0,2,0.2,2.8,0.6s1.5,1,2,1.7
		c0.5,0.7,0.8,1.6,0.8,2.5h-3.4c-0.1-0.5-0.3-1-0.6-1.3c-0.4-0.4-0.9-0.5-1.6-0.5c-0.6,0-1,0.1-1.4,0.4s-0.7,0.7-0.8,1.2
		c-0.2,0.5-0.3,1.1-0.3,1.8c0,0.6,0.1,1.2,0.3,1.7c0.2,0.5,0.4,0.9,0.8,1.2c0.4,0.3,0.9,0.4,1.5,0.4c0.5,0,0.8-0.1,1.2-0.2
		c0.3-0.2,0.6-0.4,0.8-0.7c0.2-0.3,0.3-0.6,0.4-1h3.3c0,1-0.3,1.8-0.8,2.6c-0.5,0.7-1.2,1.3-2,1.7C180.3,24,179.4,24.2,178.3,24.2z"
		/>
	<path class="st1" d="M186.2,23.8V8.2h3.4v9h-0.5c0-1.2,0.2-2.2,0.5-3c0.3-0.8,0.7-1.4,1.3-1.9s1.3-0.6,2.2-0.6h0.2
		c1.3,0,2.3,0.5,3,1.4c0.7,0.9,1,2.3,1,4v6.7h-3.4v-6.9c0-0.6-0.2-1.2-0.6-1.6c-0.4-0.4-0.9-0.6-1.5-0.6c-0.6,0-1.2,0.2-1.6,0.6
		c-0.4,0.4-0.6,1-0.6,1.7v6.8H186.2z"/>
</g>
</svg>
